<?xml version="1.0" ?><!DOCTYPE svg  PUBLIC '-//W3C//DTD SVG 1.1//EN'  'http://www.w3.org/Graphics/SVG/1.1/DTD/svg11.dtd'><svg enable-background="new 0 0 512 512" height="32px" id="round_x5F_trip" version="1.1" viewBox="0 0 512 512" width="32px" xml:space="preserve" xmlns="http://www.w3.org/2000/svg" xmlns:xlink="http://www.w3.org/1999/xlink"><path d="M223.744,248.013c1.652,2.445,5.039,2.83,6.678,0.759l8.531-10.777c2.059-2.602,2.518-6.237,1.215-9.642l-27.782-72.879  l25.019-21.072c11.927-9.183,16.612-18.01,17.809-25.458c2.548-15.863-10.851-29.26-26.706-26.666  c-7.43,1.216-16.236,5.913-25.405,17.821l-21.071,25.019l-72.878-27.781c-3.406-1.302-7.041-0.844-9.642,1.216l-10.777,8.531  c-2.071,1.639-1.686,5.024,0.759,6.678l64.319,44.864l-28.199,33.481l-23.855-6.187c-2.491-0.646-5.142-0.12-7.197,1.431  l-5.677,4.281c-1.627,1.227-1.532,3.7,0.184,4.799l21.734,13.92c-0.344,0.651-0.661,1.316-0.911,2.012  c-1.219,3.39-1.73,8.4,2.505,12.687l0.058,0.059c4.287,4.235,9.297,3.724,12.688,2.505c0.695-0.25,1.361-0.567,2.012-0.911  l13.92,21.734c1.099,1.716,3.572,1.811,4.799,0.184l4.281-5.677c1.55-2.055,2.077-4.705,1.43-7.196l-6.187-23.855l33.481-28.199  L223.744,248.013z M220.146,99.746l1.479-1.48c4.773-4.772,12.513-4.772,17.286,0c4.773,4.774,4.773,12.513,0,17.286l-1.479,1.48  c-0.894,0.894-2.344,0.894-3.238,0l-14.048-14.049C219.252,102.089,219.252,100.64,220.146,99.746z"/><path d="M259.837,453.447c7.431-1.215,16.237-5.912,25.406-17.82l21.071-25.02l72.879,27.782c3.405,1.302,7.041,0.844,9.642-1.216  l10.776-8.531c2.071-1.639,1.687-5.025-0.758-6.678l-64.319-44.863l28.199-33.482l23.854,6.188c2.492,0.646,5.143,0.119,7.197-1.431  l5.677-4.282c1.627-1.227,1.532-3.699-0.184-4.799l-21.735-13.92c0.346-0.65,0.662-1.316,0.912-2.012  c1.219-3.391,1.73-8.4-2.506-12.688l-0.059-0.059c-4.287-4.235-9.297-3.725-12.688-2.506c-0.695,0.25-1.36,0.567-2.012,0.912  l-13.92-21.734c-1.099-1.717-3.572-1.811-4.799-0.184l-4.281,5.676c-1.551,2.056-2.077,4.705-1.431,7.197l6.187,23.855  l-33.481,28.199l-44.864-64.319c-1.652-2.444-5.039-2.829-6.678-0.759l-8.531,10.776c-2.06,2.602-2.518,6.237-1.215,9.643  l27.782,72.878l-25.019,21.072c-11.927,9.183-16.612,18.01-17.809,25.458C230.584,442.645,243.982,456.041,259.837,453.447z   M249.434,420.174l1.479-1.479c0.894-0.895,2.344-0.895,3.238,0l14.048,14.048c0.895,0.894,0.895,2.343,0,3.237l-1.479,1.479  c-4.773,4.774-12.513,4.774-17.286,0C244.66,432.688,244.66,424.947,249.434,420.174z"/><path d="M184.667,463.951c6.415,0,12.886-0.446,19.371-1.352l-3.729-26.731c-34.516,4.811-68.408-6.532-93.008-31.134  C68.936,366.368,64.45,304.719,96.867,261.332l-21.621-16.155c-19.51,26.11-29.031,58.485-26.813,91.16  c2.24,33,16.369,64.069,39.784,87.483C114.232,449.836,148.589,463.951,184.667,463.951z"/><path d="M423.848,281.805c53.38-53.38,53.38-140.235,0-193.616c-41.51-41.512-104.752-51.962-157.367-26.016l11.938,24.208  c42.242-20.834,93.015-12.435,126.343,20.893c42.856,42.857,42.856,112.589,0,155.447l-9.332,9.331l19.088,19.085L423.848,281.805z"/></svg>
